<svg xmlns="http://www.w3.org/2000/svg" width="153" height="30" viewBox="0 0 153 30" fill="none">
  <path d="M37.2118 14.8274C37.2118 17.757 39.4342 19.7117 42.1286 19.7117C43.5906 19.7148 45.0247 19.3172 46.2703 18.5634V21.4088C45.7104 21.7506 44.0283 22.3717 42.1506 22.3717C37.7692 22.3645 34.2998 19.093 34.2998 14.8274C34.2998 10.5617 37.7692 7.29753 42.1506 7.29753C44.0283 7.29753 45.7104 7.91378 46.2703 8.26042V11.0889C45.0237 10.338 43.59 9.94223 42.1286 9.94549C39.4342 9.94549 37.2118 11.8978 37.2118 14.8274ZM59.1626 15.0007V22.1526H56.4731V15.8456C56.4731 14.5939 55.9108 13.6599 54.4658 13.6599C53.0649 13.6599 52.2458 14.5289 52.2458 16.1008V22.1526H49.5563V6.65239H52.2458V13.2988C52.439 12.8173 53.1944 11.3224 55.4585 11.3224C57.7836 11.3224 59.1626 12.6825 59.1626 15.0007ZM73.7859 19.9235V22.1526H70.314C70.2576 22.156 70.201 22.1477 70.1479 22.1284C70.0949 22.1091 70.0465 22.0792 70.0058 22.0405C69.9651 22.0018 69.933 21.9552 69.9116 21.9036C69.8901 21.852 69.8798 21.7967 69.8813 21.741V19.8393C69.5145 21.091 68.5243 22.3645 66.4583 22.3645C63.654 22.3645 61.6271 20.3063 61.6271 16.8447C61.6271 13.3397 63.8471 11.3224 66.6075 11.3224C69.1527 11.3224 69.671 13.383 69.671 13.383V11.5367H72.3605V19.9235H73.7859ZM69.7517 16.8663C69.7517 14.8707 68.7737 13.6165 67.1649 13.6165C65.6124 13.6165 64.4266 14.7431 64.4266 16.8447C64.4266 18.9462 65.4046 20.0728 67.0354 20.0728C68.6955 20.0728 69.7517 19.0112 69.7517 16.8663ZM79.9594 11.9604V22.1526H77.2699V13.7658H75.314V11.5367H79.5389C79.5954 11.5349 79.6517 11.5448 79.7042 11.5656C79.7567 11.5864 79.8042 11.6177 79.8437 11.6575C79.8833 11.6974 79.914 11.7448 79.9339 11.797C79.9538 11.8491 79.9625 11.9047 79.9594 11.9604ZM79.8738 9.32683H76.9619V6.65239H79.8738V9.32683ZM83.1012 11.5367H85.754V13.4264C85.842 13.1495 86.4874 11.3224 89.0106 11.3224C91.3407 11.3224 92.7221 12.6825 92.7221 14.9959V22.1526H90.0326V15.8456C90.0326 14.5939 89.4727 13.6599 88.0278 13.6599C86.6244 13.6599 85.8053 14.5289 85.8053 16.1008V22.1526H83.1158L83.1012 11.5367ZM107.343 19.9235V22.1526H103.871C103.815 22.156 103.758 22.1477 103.705 22.1284C103.652 22.1091 103.604 22.0792 103.563 22.0405C103.522 22.0018 103.49 21.9552 103.469 21.9036C103.447 21.852 103.437 21.7967 103.438 21.741V19.8393C103.072 21.091 102.081 22.3645 100.015 22.3645C97.211 22.3645 95.1842 20.3063 95.1842 16.8447C95.1842 13.3397 97.4042 11.3224 100.167 11.3224C102.712 11.3224 103.228 13.383 103.228 13.383V11.5367H105.918V19.9235H107.343ZM103.309 16.8663C103.309 14.8707 102.331 13.6165 100.722 13.6165C99.1694 13.6165 97.9836 14.7431 97.9836 16.8447C97.9836 18.9462 98.9738 20.0728 100.605 20.0728C102.253 20.0728 103.309 19.0112 103.309 16.8663ZM112.844 7.29753V22.1526H110.14V8.88149H108.458V6.65239H112.189C112.275 6.65142 112.361 6.66744 112.441 6.69952C112.521 6.7316 112.593 6.77909 112.654 6.83919C112.715 6.89929 112.764 6.97079 112.796 7.0495C112.829 7.12821 112.845 7.21254 112.844 7.29753ZM117.688 27.0369H114.998V24.8078H116.986C117.697 24.8078 118.023 24.596 118.279 23.9581L119.079 21.9625L114.927 11.5367H117.925L120.448 19.0304L123.059 11.5367H126.057L120.751 24.9763C120.191 26.399 119.262 27.0369 117.688 27.0369ZM127.551 21.4738V18.9053C127.917 19.146 129.404 20.1089 131.066 20.1089C132.338 20.1089 132.898 19.7478 132.898 19.0473C132.898 16.9458 127.399 18.496 127.399 14.5048C127.399 12.6994 128.951 11.3176 131.8 11.3176C133.372 11.3176 134.489 11.722 134.927 11.9772V14.5193C134.387 14.1774 133.308 13.4986 131.841 13.4986C130.57 13.4986 130.096 13.8813 130.096 14.4759C130.096 16.1947 135.572 15.0055 135.572 18.9149C135.572 21.0381 133.783 22.3741 131.172 22.3741C129.455 22.3645 128.047 21.7915 127.551 21.4738ZM142.022 11.9604V22.1526H139.333V13.7658H137.377V11.5367H141.604C141.661 11.5349 141.717 11.5447 141.769 11.5656C141.821 11.5864 141.869 11.6177 141.908 11.6576C141.948 11.6975 141.978 11.745 141.998 11.7971C142.017 11.8493 142.026 11.9049 142.022 11.9604ZM141.937 9.32683H139.025V6.65239H141.937V9.32683ZM144.905 21.4738V18.9053C145.269 19.146 146.758 20.1089 148.418 20.1089C149.692 20.1089 150.252 19.7478 150.252 19.0473C150.252 16.9458 144.753 18.496 144.753 14.5048C144.753 12.6994 146.306 11.3176 149.154 11.3176C150.729 11.3176 151.844 11.722 152.281 11.9772V14.5193C151.379 13.8855 150.306 13.5302 149.198 13.4986C147.924 13.4986 147.45 13.8813 147.45 14.4759C147.45 16.1947 152.929 15.0055 152.929 18.9149C152.929 21.0381 151.139 22.3741 148.528 22.3741C146.814 22.3645 145.399 21.7915 144.905 21.4738Z" fill="#C5C5C5"/>
  <path d="M14.2976 2.96484C14.5715 2.96484 14.882 2.99855 14.882 2.99855C13.9633 4.08346 13.4096 5.42264 13.2977 6.83088C11.5666 7.116 9.97289 7.93697 8.74798 9.17458C7.52307 10.4122 6.73073 12.002 6.48601 13.7132C4.90412 13.8817 3.11441 14.5942 2.08508 15.6125C1.84058 8.62668 7.27817 2.96484 14.2976 2.96484ZM16.058 23.9512C15.7342 23.9983 15.4073 24.0216 15.08 24.021C14.5151 24.0144 13.9514 23.9685 13.393 23.8838C12.9568 24.9179 12.3811 25.8896 11.6815 26.7725C9.48722 26.296 7.46873 25.2333 5.8478 23.7011C4.22688 22.1689 3.06624 20.2264 2.49339 18.0871C3.59606 16.7993 6.14371 16.053 7.7256 16.053C11.0996 16.053 12.8894 17.8151 13.5104 20.5618C11.4786 20.0202 10.2732 18.9008 9.48108 17.2398C9.01814 17.0743 8.52858 16.9928 8.03611 16.9991C7.59173 16.9973 7.14999 17.0664 6.72806 17.2037C7.62291 20.5618 10.9285 23.0701 14.9553 23.0701C18.6741 23.0701 20.256 21.2069 20.256 21.2069V18.3568C20.256 18.3568 18.4321 20.2224 16.1607 20.5955C15.9052 18.8543 15.0824 17.2419 13.8161 16.0008C12.5498 14.7596 10.9084 13.9569 9.13879 13.7132C9.72313 10.8654 11.926 9.27182 14.9211 9.27182C17.9162 9.27182 20.3269 11.407 20.3269 11.407V8.59298C20.3269 8.59298 18.7768 7.16789 16.0238 6.86458C16.0922 5.61281 16.9186 4.05051 17.8135 3.47277C21.5641 4.62584 25.1802 7.74563 26.2119 12.2881C26.2119 12.2881 24.5591 13.9154 21.4614 13.9154C18.9137 13.9154 17.3049 12.6612 16.4003 10.4586C15.9258 10.2922 15.4248 10.2106 14.9211 10.2179C14.451 10.2128 13.9842 10.2944 13.5446 10.4586C14.5421 13.9852 17.701 16.3563 21.2218 16.3563C24.6643 16.3563 26.5224 14.7989 26.5224 14.7989C26.5224 21.8497 21.0482 26.9025 14.5421 27.0373C15.3001 26.3151 15.8844 24.7311 16.058 23.9512Z" fill="#C5C5C5"/>
</svg>