<svg width="106" height="36" viewBox="0 0 106 36" fill="none" xmlns="http://www.w3.org/2000/svg">
<g clip-path="url(#clip0_9685_40100)">
<g clip-path="url(#clip1_9685_40100)">
<path d="M3.41943 18.8028L4.93596 16.5694C5.99979 17.5866 7.13153 18.0731 8.76123 18.0731C9.93824 18.0731 10.6173 17.5645 10.6173 16.7905C10.6173 16.1271 9.75716 15.8176 8.01429 15.2205C5.84135 14.4908 3.96267 13.5399 3.96267 10.9969C3.96267 8.87408 5.90925 7.32617 8.62542 7.32617C10.3004 7.32617 11.8396 7.76843 13.2882 8.94042L11.7943 11.2844C10.7305 10.3114 9.50818 9.91339 8.48961 9.91339C7.90111 9.91339 7.04099 10.223 7.04099 11.019C7.04099 11.6603 7.85584 12.1026 9.12339 12.5891C11.9527 13.6726 13.7182 14.1812 13.7182 16.7463C13.7182 18.9134 12.1338 20.6824 8.78387 20.6824C6.63357 20.6824 4.80015 19.9969 3.41943 18.8028Z" fill="#1A1A1A"/>
<path d="M14.5791 14.0258C14.5791 10.0454 17.4311 7.34766 21.4601 7.34766C23.5198 7.34766 25.6928 8.16584 27.0282 9.75797L24.9684 11.5049C24.1989 10.6204 23.0671 10.0233 21.6185 10.0233C19.2645 10.0012 17.6801 11.6376 17.6801 13.9815C17.6801 16.3697 19.2871 17.9619 21.6185 17.9619C23.0898 17.9619 24.2894 17.3206 24.9684 16.4582L27.0508 18.2715C25.9417 19.6867 24.2215 20.6818 21.3469 20.6818C17.4311 20.6818 14.5791 17.9619 14.5791 14.0258Z" fill="#1A1A1A"/>
<path d="M27.6387 14.0475C27.6387 10.1557 30.3775 7.3252 34.0217 7.3252C35.6966 7.3252 37.1679 7.94436 38.1186 9.09423L38.1638 9.07212V7.5021H41.2195V20.4603H38.3223V18.7576L38.277 18.7355C37.3263 19.9738 35.923 20.6814 34.0669 20.6814C30.4001 20.6814 27.6387 18.05 27.6387 14.0475ZM38.3223 14.0697C38.3223 11.7699 36.7152 10.0009 34.5423 10.0009C32.4146 10.0009 30.7396 11.5709 30.7396 14.0697C30.7396 16.3473 32.2788 17.9615 34.5423 17.9615C36.602 17.9615 38.3223 16.4136 38.3223 14.0697Z" fill="#1A1A1A"/>
<path d="M43.8906 0.93457H46.9237V20.4603H43.8906V0.93457Z" fill="#1A1A1A"/>
<path d="M48.9128 14.0475C48.9128 10.1557 51.6516 7.3252 55.2958 7.3252C56.9708 7.3252 58.4421 7.94436 59.3927 9.09423L59.438 9.07212V7.5021H62.4937V20.4603H59.5964V18.7576L59.5512 18.7355C58.6005 19.9738 57.1972 20.6814 55.3411 20.6814C51.6516 20.6814 48.9128 18.05 48.9128 14.0475ZM59.5964 14.0697C59.5964 11.7699 57.9894 10.0009 55.8164 10.0009C53.6888 10.0009 52.0138 11.5709 52.0138 14.0697C52.0138 16.3473 53.553 17.9615 55.8164 17.9615C57.8762 17.9615 59.5964 16.4136 59.5964 14.0697Z" fill="#1A1A1A"/>
<path d="M67.9252 18.7355H67.8799V20.4603H64.9827V0.93457H68.0157V9.05003H68.0384C69.0796 7.90016 70.5055 7.32522 72.2484 7.32522C75.9153 7.32522 78.6541 10.1336 78.6541 14.0476C78.6541 18.05 75.9153 20.6815 72.2258 20.6815C70.3245 20.6815 68.8985 19.996 67.9252 18.7355ZM75.5531 14.0697C75.5531 11.5709 73.8329 10.0009 71.7278 10.0009C69.4417 10.0009 67.8799 11.7478 67.8799 14.0697C67.8799 16.4136 69.6002 17.9616 71.7731 17.9616C73.9913 17.9616 75.5531 16.3473 75.5531 14.0697Z" fill="#1A1A1A"/>
<path d="M80.6704 0.93457H83.7035V20.4603H80.6704V0.93457Z" fill="#1A1A1A"/>
<path d="M98.5313 14.9766H88.8663C89.2511 16.8562 90.6771 17.984 92.7595 17.984C94.3439 17.984 95.4304 17.2985 96.1094 16.4803L98.2371 18.2493C97.128 19.6646 95.4756 20.6818 92.6236 20.6818C88.5947 20.6818 85.7427 18.0503 85.7427 14.0037C85.7427 10.0233 88.5041 7.34766 92.3973 7.34766C96.1094 7.34766 98.6445 10.0897 98.6445 13.8489C98.6219 14.3132 98.554 14.7555 98.5313 14.9766ZM88.9342 12.6327H95.5435C95.1587 11.0626 94.0723 10.0012 92.3294 10.0012C90.6544 10.0012 89.3642 10.93 88.9342 12.6327Z" fill="#1A1A1A"/>
<path d="M102.036 14.0693C102.036 13.0079 102.919 12.1455 104.028 12.1455C105.115 12.1455 105.997 13.0079 105.997 14.0693C105.997 15.1308 105.115 15.971 104.028 15.971C102.919 15.971 102.036 15.1308 102.036 14.0693Z" fill="#FE3D3D"/>
<path d="M102.036 14.0693C102.036 13.0079 102.919 12.1455 104.028 12.1455C105.115 12.1455 105.997 13.0079 105.997 14.0693C105.997 15.1308 105.115 15.971 104.028 15.971C102.919 15.971 102.036 15.1308 102.036 14.0693Z" fill="#F43333"/>
</g>
</g>
<path d="M4.19732 26.8122H6.28578C6.748 26.8122 7.15385 26.8854 7.50334 27.032C7.85282 27.1729 8.14312 27.3758 8.37423 27.6408C8.61098 27.9001 8.78854 28.2157 8.90691 28.5878C9.02529 28.9542 9.08447 29.36 9.08447 29.8053C9.08447 30.245 9.02247 30.648 8.89846 31.0144C8.78008 31.3808 8.60252 31.6965 8.36578 31.9614C8.13466 32.2207 7.84437 32.4236 7.49488 32.5702C7.1454 32.7168 6.74236 32.79 6.28578 32.79H4.19732V26.8122ZM4.74691 27.311V32.2912H6.22659C6.60426 32.2912 6.93683 32.232 7.22431 32.1136C7.51179 31.9896 7.75136 31.8177 7.94301 31.5978C8.13466 31.378 8.2784 31.1159 8.37423 30.8115C8.47006 30.5071 8.51797 30.1717 8.51797 29.8053C8.51797 29.4502 8.47288 29.1204 8.38269 28.8161C8.2925 28.5117 8.15439 28.2496 7.96838 28.0297C7.78236 27.8042 7.54843 27.6295 7.26659 27.5055C6.98475 27.3758 6.65499 27.311 6.27732 27.311H4.74691ZM11.1698 26.7276C11.2938 26.7276 11.3953 26.7642 11.4742 26.8375C11.5531 26.9108 11.5926 27.0094 11.5926 27.1335C11.5926 27.2631 11.5531 27.3646 11.4742 27.4378C11.3953 27.5111 11.2938 27.5478 11.1698 27.5478C11.0458 27.5478 10.9444 27.5111 10.8654 27.4378C10.7922 27.3646 10.7555 27.2631 10.7555 27.1335C10.7555 27.0038 10.7922 26.9052 10.8654 26.8375C10.9444 26.7642 11.0458 26.7276 11.1698 26.7276ZM10.8908 28.3341H11.4489V32.79H10.8908V28.3341ZM16.8565 28.3341H17.3808V32.6463C17.3808 33.0183 17.3441 33.334 17.2708 33.5933C17.1976 33.8582 17.0792 34.0837 16.9157 34.2697C16.7579 34.4614 16.5493 34.6079 16.29 34.7094C16.0364 34.8109 15.7292 34.8616 15.3684 34.8616C15.1486 34.8616 14.94 34.839 14.7427 34.7939C14.5454 34.7545 14.365 34.6868 14.2016 34.591C14.0437 34.4952 13.9056 34.3712 13.7873 34.219C13.6745 34.0724 13.59 33.892 13.5336 33.6778H14.1086C14.1537 33.8131 14.2213 33.9259 14.3115 34.0161C14.4073 34.1062 14.5144 34.1767 14.6328 34.2274C14.7512 34.2838 14.8752 34.3233 15.0048 34.3458C15.1401 34.374 15.2726 34.3881 15.4022 34.3881C15.6897 34.3881 15.9236 34.343 16.104 34.2528C16.29 34.1683 16.4338 34.0471 16.5352 33.8892C16.6423 33.7314 16.7156 33.5454 16.7551 33.3312C16.8002 33.1226 16.8227 32.8915 16.8227 32.6378V32.0798C16.6367 32.3504 16.4056 32.5448 16.1294 32.6632C15.8588 32.7816 15.5544 32.8408 15.2162 32.8408C14.8611 32.8408 14.5539 32.7759 14.2946 32.6463C14.0409 32.5167 13.8352 32.3419 13.6773 32.1221C13.5252 31.9022 13.4124 31.6486 13.3391 31.3611C13.2715 31.068 13.2433 30.7636 13.2546 30.4479C13.2602 30.1379 13.3081 29.8532 13.3983 29.5939C13.4941 29.329 13.6266 29.1007 13.7957 28.9091C13.9648 28.7118 14.1762 28.5596 14.4299 28.4525C14.6835 28.3397 14.9738 28.2834 15.3008 28.2834C15.6108 28.2834 15.8983 28.3369 16.1632 28.444C16.4281 28.5511 16.648 28.7259 16.8227 28.9683L16.8565 28.3341ZM15.2923 28.7569C15.0274 28.7569 14.8019 28.8076 14.6159 28.9091C14.4299 29.0049 14.2777 29.1374 14.1593 29.3065C14.0409 29.4699 13.9536 29.6588 13.8972 29.873C13.8408 30.0872 13.8126 30.3126 13.8126 30.5494C13.8126 30.7974 13.838 31.0313 13.8887 31.2512C13.9451 31.471 14.0325 31.6627 14.1508 31.8261C14.2692 31.9896 14.4214 32.1221 14.6074 32.2235C14.7991 32.3194 15.033 32.3673 15.3092 32.3673C15.5572 32.3673 15.7799 32.3137 15.9772 32.2066C16.1801 32.0939 16.3464 31.953 16.476 31.7839C16.6057 31.6148 16.6987 31.4259 16.7551 31.2174C16.8114 31.0032 16.8396 30.7805 16.8396 30.5494C16.8396 30.2732 16.7945 29.9998 16.7043 29.7292C16.6198 29.453 16.462 29.2275 16.2308 29.0528C15.9659 28.8555 15.6531 28.7569 15.2923 28.7569ZM19.6238 26.7276C19.7478 26.7276 19.8493 26.7642 19.9282 26.8375C20.0071 26.9108 20.0466 27.0094 20.0466 27.1335C20.0466 27.2631 20.0071 27.3646 19.9282 27.4378C19.8493 27.5111 19.7478 27.5478 19.6238 27.5478C19.4998 27.5478 19.3983 27.5111 19.3194 27.4378C19.2461 27.3646 19.2095 27.2631 19.2095 27.1335C19.2095 27.0038 19.2461 26.9052 19.3194 26.8375C19.3983 26.7642 19.4998 26.7276 19.6238 26.7276ZM19.3448 28.3341H19.9028V32.79H19.3448V28.3341ZM22.8585 28.3341H24.2874V28.8076H22.8585V31.3188C22.8585 31.4485 22.8641 31.5753 22.8754 31.6993C22.8923 31.8233 22.9261 31.9361 22.9768 32.0375C23.0276 32.1333 23.1008 32.2123 23.1967 32.2743C23.2981 32.3363 23.4334 32.3673 23.6025 32.3673C23.7096 32.3673 23.8167 32.3532 23.9238 32.325C24.0366 32.2912 24.1268 32.2433 24.1944 32.1813L24.4142 32.5787C24.2846 32.6801 24.1465 32.7506 23.9999 32.79C23.859 32.8239 23.7012 32.8408 23.5264 32.8408C23.2953 32.8408 23.1008 32.8069 22.943 32.7393C22.7852 32.6717 22.6584 32.5787 22.5625 32.4603C22.4667 32.3363 22.3991 32.1869 22.3596 32.0122C22.3201 31.8318 22.3004 31.6317 22.3004 31.4118V28.8076H21.5479V28.3341H22.3004V27.0574H22.8585V28.3341ZM28.892 32.1474C28.6778 32.4067 28.4326 32.5871 28.1564 32.6886C27.8858 32.79 27.587 32.8408 27.2601 32.8408C27.0628 32.8408 26.8712 32.8182 26.6851 32.7731C26.5048 32.7224 26.3413 32.6435 26.1947 32.5364C26.0482 32.4293 25.9298 32.294 25.8396 32.1305C25.7551 31.9614 25.7128 31.7726 25.7128 31.564C25.7128 31.3104 25.7607 31.099 25.8565 30.9299C25.9524 30.7608 26.0764 30.6255 26.2286 30.524C26.3864 30.4226 26.5668 30.3521 26.7697 30.3126C26.9726 30.2675 27.184 30.245 27.4038 30.245H28.8666C28.8666 30.0421 28.8441 29.8504 28.799 29.67C28.7595 29.4897 28.6919 29.3318 28.596 29.1965C28.5002 29.0613 28.3734 28.9542 28.2155 28.8752C28.0634 28.7963 27.8745 28.7569 27.649 28.7569C27.5419 28.7569 27.432 28.7653 27.3193 28.7822C27.2122 28.7991 27.1079 28.8273 27.0064 28.8668C26.9106 28.9062 26.8204 28.9626 26.7359 29.0359C26.657 29.1035 26.5921 29.1881 26.5414 29.2896H25.9326C25.9834 29.1035 26.0679 28.9485 26.1863 28.8245C26.3047 28.6949 26.4428 28.5906 26.6006 28.5117C26.7641 28.4271 26.936 28.3679 27.1164 28.3341C27.3024 28.3003 27.4856 28.2834 27.666 28.2834C27.9929 28.2834 28.2691 28.3369 28.4946 28.444C28.72 28.5511 28.9004 28.7005 29.0357 28.8922C29.1766 29.0782 29.2753 29.298 29.3316 29.5517C29.3937 29.8053 29.4247 30.0787 29.4247 30.3718V32.79H28.9681L28.892 32.1474ZM27.6913 30.6931C27.5448 30.6931 27.3869 30.6988 27.2178 30.71C27.0544 30.7213 26.9022 30.7551 26.7612 30.8115C26.6203 30.8622 26.5019 30.944 26.4061 31.0567C26.3159 31.1638 26.2708 31.3132 26.2708 31.5048C26.2708 31.657 26.299 31.7867 26.3554 31.8938C26.4174 32.0009 26.4963 32.0911 26.5921 32.1643C26.6936 32.2376 26.8063 32.2912 26.9303 32.325C27.06 32.3588 27.1925 32.3757 27.3277 32.3757C27.5476 32.3757 27.7505 32.3475 27.9365 32.2912C28.1282 32.2348 28.2916 32.1503 28.4269 32.0375C28.5679 31.9191 28.675 31.7754 28.7482 31.6063C28.8271 31.4316 28.8666 31.2286 28.8666 30.9975V30.6931H27.6913ZM31.3058 32.79V26.8122H31.8638V32.79H31.3058ZM37.3385 31.4626L36.8481 32.79H36.2309L38.4631 26.8122H39.2325L41.4563 32.79H40.839L40.3486 31.4626H37.3385ZM37.5246 30.9552H40.1711L38.8436 27.3279L37.5246 30.9552ZM44.4362 28.7569C44.3066 28.7569 44.1741 28.7681 44.0388 28.7907C43.9092 28.8132 43.7908 28.8527 43.6837 28.9091C43.5766 28.9598 43.4864 29.0331 43.4131 29.1289C43.3455 29.2247 43.3117 29.3487 43.3117 29.5009C43.3117 29.6193 43.3342 29.7208 43.3793 29.8053C43.43 29.8899 43.492 29.9603 43.5653 30.0167C43.6442 30.0731 43.7316 30.1182 43.8274 30.152C43.9233 30.1858 44.0219 30.214 44.1234 30.2365C44.3038 30.276 44.4813 30.3126 44.6561 30.3465C44.8308 30.3803 45.0084 30.4197 45.1887 30.4648C45.4875 30.5268 45.7299 30.6452 45.9159 30.82C46.1075 30.9947 46.2034 31.2455 46.2034 31.5725C46.2034 31.8205 46.1498 32.0262 46.0427 32.1897C45.9413 32.3532 45.8088 32.4856 45.6453 32.5871C45.4819 32.6829 45.2958 32.7506 45.0873 32.79C44.8787 32.8239 44.6701 32.8408 44.4616 32.8408C44.2699 32.8408 44.0755 32.821 43.8782 32.7816C43.6809 32.7421 43.4977 32.6801 43.3286 32.5956C43.1595 32.5054 43.0129 32.3898 42.8889 32.2489C42.7649 32.108 42.6803 31.9304 42.6352 31.7162H43.2017C43.2638 31.8459 43.3399 31.953 43.43 32.0375C43.5259 32.1164 43.6301 32.1813 43.7429 32.232C43.8556 32.2771 43.974 32.3109 44.098 32.3335C44.2277 32.356 44.3573 32.3673 44.487 32.3673C44.6166 32.3673 44.7491 32.3588 44.8843 32.3419C45.0253 32.325 45.1521 32.2912 45.2648 32.2404C45.3776 32.1841 45.4706 32.1052 45.5439 32.0037C45.6171 31.9022 45.6538 31.7698 45.6538 31.6063C45.6538 31.4936 45.6312 31.3977 45.5861 31.3188C45.541 31.2399 45.4819 31.1751 45.4086 31.1243C45.3353 31.0736 45.2507 31.0342 45.1549 31.006C45.0647 30.9722 44.9717 30.944 44.8759 30.9214C44.7012 30.882 44.5292 30.8481 44.3601 30.82C44.191 30.7861 44.0163 30.7467 43.8359 30.7016C43.5259 30.6283 43.2694 30.4987 43.0665 30.3126C42.8635 30.121 42.7621 29.8561 42.7621 29.5178C42.7621 29.2755 42.8128 29.0754 42.9143 28.9175C43.0157 28.7597 43.1454 28.6357 43.3032 28.5455C43.4667 28.4497 43.6499 28.382 43.8528 28.3426C44.0557 28.3031 44.2558 28.2834 44.4531 28.2834C44.6279 28.2834 44.8026 28.3031 44.9774 28.3426C45.1577 28.3764 45.3212 28.4356 45.4678 28.5201C45.6143 28.6047 45.7383 28.7146 45.8398 28.8499C45.9469 28.9852 46.0174 29.1486 46.0512 29.3403H45.5354C45.4959 29.2388 45.4368 29.1514 45.3578 29.0782C45.2789 28.9993 45.1887 28.9372 45.0873 28.8922C44.9858 28.8471 44.8787 28.8132 44.766 28.7907C44.6532 28.7681 44.5433 28.7569 44.4362 28.7569ZM49.4229 28.7569C49.2932 28.7569 49.1607 28.7681 49.0255 28.7907C48.8958 28.8132 48.7774 28.8527 48.6703 28.9091C48.5632 28.9598 48.473 29.0331 48.3998 29.1289C48.3321 29.2247 48.2983 29.3487 48.2983 29.5009C48.2983 29.6193 48.3209 29.7208 48.3659 29.8053C48.4167 29.8899 48.4787 29.9603 48.552 30.0167C48.6309 30.0731 48.7182 30.1182 48.8141 30.152C48.9099 30.1858 49.0085 30.214 49.11 30.2365C49.2904 30.276 49.468 30.3126 49.6427 30.3465C49.8174 30.3803 49.995 30.4197 50.1754 30.4648C50.4741 30.5268 50.7165 30.6452 50.9025 30.82C51.0942 30.9947 51.19 31.2455 51.19 31.5725C51.19 31.8205 51.1365 32.0262 51.0294 32.1897C50.9279 32.3532 50.7954 32.4856 50.632 32.5871C50.4685 32.6829 50.2825 32.7506 50.0739 32.79C49.8653 32.8239 49.6568 32.8408 49.4482 32.8408C49.2566 32.8408 49.0621 32.821 48.8648 32.7816C48.6675 32.7421 48.4843 32.6801 48.3152 32.5956C48.1461 32.5054 47.9995 32.3898 47.8755 32.2489C47.7515 32.108 47.667 31.9304 47.6219 31.7162H48.1884C48.2504 31.8459 48.3265 31.953 48.4167 32.0375C48.5125 32.1164 48.6168 32.1813 48.7295 32.232C48.8423 32.2771 48.9606 32.3109 49.0846 32.3335C49.2143 32.356 49.3439 32.3673 49.4736 32.3673C49.6032 32.3673 49.7357 32.3588 49.871 32.3419C50.0119 32.325 50.1387 32.2912 50.2515 32.2404C50.3642 32.1841 50.4572 32.1052 50.5305 32.0037C50.6038 31.9022 50.6404 31.7698 50.6404 31.6063C50.6404 31.4936 50.6179 31.3977 50.5728 31.3188C50.5277 31.2399 50.4685 31.1751 50.3952 31.1243C50.3219 31.0736 50.2374 31.0342 50.1416 31.006C50.0514 30.9722 49.9584 30.944 49.8625 30.9214C49.6878 30.882 49.5159 30.8481 49.3468 30.82C49.1777 30.7861 49.0029 30.7467 48.8225 30.7016C48.5125 30.6283 48.256 30.4987 48.0531 30.3126C47.8502 30.121 47.7487 29.8561 47.7487 29.5178C47.7487 29.2755 47.7994 29.0754 47.9009 28.9175C48.0024 28.7597 48.132 28.6357 48.2898 28.5455C48.4533 28.4497 48.6365 28.382 48.8394 28.3426C49.0424 28.3031 49.2425 28.2834 49.4398 28.2834C49.6145 28.2834 49.7893 28.3031 49.964 28.3426C50.1444 28.3764 50.3078 28.4356 50.4544 28.5201C50.601 28.6047 50.725 28.7146 50.8264 28.8499C50.9335 28.9852 51.004 29.1486 51.0378 29.3403H50.522C50.4826 29.2388 50.4234 29.1514 50.3445 29.0782C50.2656 28.9993 50.1754 28.9372 50.0739 28.8922C49.9724 28.8471 49.8653 28.8132 49.7526 28.7907C49.6399 28.7681 49.53 28.7569 49.4229 28.7569ZM53.2258 30.7439C53.237 30.9806 53.2765 31.1976 53.3441 31.3949C53.4174 31.5922 53.5189 31.7641 53.6485 31.9107C53.7782 32.0516 53.936 32.1643 54.122 32.2489C54.3137 32.3278 54.5363 32.3673 54.79 32.3673C54.9084 32.3673 55.0267 32.356 55.1451 32.3335C55.2691 32.3109 55.3847 32.2771 55.4918 32.232C55.6045 32.1813 55.706 32.1164 55.7962 32.0375C55.8863 31.9586 55.9568 31.86 56.0075 31.7416H56.591C56.529 31.9389 56.4331 32.108 56.3035 32.2489C56.1795 32.3898 56.0357 32.5054 55.8723 32.5956C55.7088 32.6801 55.5312 32.7421 55.3396 32.7816C55.1479 32.821 54.9563 32.8408 54.7646 32.8408C54.4151 32.8408 54.1079 32.7844 53.843 32.6717C53.5837 32.5589 53.3667 32.4039 53.1919 32.2066C53.0172 32.0037 52.8875 31.7641 52.803 31.4879C52.7184 31.2061 52.6762 30.8989 52.6762 30.5663C52.6762 30.2281 52.7213 29.9181 52.8114 29.6362C52.9016 29.3544 53.0341 29.1148 53.2088 28.9175C53.3892 28.7146 53.6091 28.5596 53.8684 28.4525C54.1333 28.3397 54.4349 28.2834 54.7731 28.2834C55.1282 28.2834 55.4269 28.3538 55.6693 28.4948C55.9174 28.6357 56.1175 28.8217 56.2697 29.0528C56.4219 29.2783 56.529 29.5404 56.591 29.8391C56.6586 30.1323 56.6868 30.4338 56.6755 30.7439H53.2258ZM56.109 30.2788C56.1034 30.0759 56.0695 29.8814 56.0075 29.6954C55.9512 29.5094 55.8638 29.3487 55.7454 29.2135C55.6327 29.0725 55.489 28.9626 55.3142 28.8837C55.1395 28.7991 54.9365 28.7569 54.7054 28.7569C54.4743 28.7569 54.2686 28.7991 54.0882 28.8837C53.9134 28.9683 53.7641 29.081 53.6401 29.2219C53.5161 29.3628 53.4202 29.5263 53.3526 29.7123C53.2849 29.8927 53.2455 30.0815 53.2342 30.2788H56.109ZM59.3909 28.3341H60.8199V28.8076H59.3909V31.3188C59.3909 31.4485 59.3965 31.5753 59.4078 31.6993C59.4247 31.8233 59.4586 31.9361 59.5093 32.0375C59.56 32.1333 59.6333 32.2123 59.7291 32.2743C59.8306 32.3363 59.9659 32.3673 60.135 32.3673C60.2421 32.3673 60.3492 32.3532 60.4563 32.325C60.569 32.2912 60.6592 32.2433 60.7268 32.1813L60.9467 32.5787C60.817 32.6801 60.6789 32.7506 60.5324 32.79C60.3915 32.8239 60.2336 32.8408 60.0589 32.8408C59.8278 32.8408 59.6333 32.8069 59.4755 32.7393C59.3176 32.6717 59.1908 32.5787 59.095 32.4603C58.9991 32.3363 58.9315 32.1869 58.892 32.0122C58.8526 31.8318 58.8329 31.6317 58.8329 31.4118V28.8076H58.0803V28.3341H58.8329V27.0574H59.3909V28.3341ZM65.5219 26.8122H69.4536V27.3195H66.0715V29.5686H69.1154V30.0759H66.0715V32.2827H69.4536V32.79H65.5219V26.8122ZM71.1899 32.79V28.3341H71.7311L71.748 29.0951C71.8269 28.9598 71.9255 28.8414 72.0439 28.74C72.1623 28.6329 72.2863 28.5483 72.4159 28.4863C72.5625 28.413 72.7119 28.3623 72.8641 28.3341C73.0219 28.3003 73.191 28.2834 73.3714 28.2834C73.6138 28.2834 73.8252 28.3172 74.0055 28.3848C74.1916 28.4525 74.3494 28.5427 74.479 28.6554C74.6932 28.8358 74.8426 29.0697 74.9272 29.3572C75.0117 29.6447 75.054 29.966 75.054 30.3211V32.79H74.4959V30.524C74.4959 30.2591 74.4734 30.0054 74.4283 29.763C74.3888 29.515 74.2987 29.3036 74.1577 29.1289C74.0619 29.0162 73.9435 28.926 73.8026 28.8583C73.6617 28.7907 73.4841 28.7569 73.2699 28.7569C73.0388 28.7569 72.8274 28.8048 72.6358 28.9006C72.4441 28.9964 72.2835 29.1204 72.1538 29.2726C72.0073 29.4417 71.903 29.6362 71.841 29.8561C71.779 30.0759 71.748 30.307 71.748 30.5494V32.79H71.1899ZM79.9467 32.1474C79.7325 32.4067 79.4873 32.5871 79.2111 32.6886C78.9405 32.79 78.6418 32.8408 78.3148 32.8408C78.1175 32.8408 77.9259 32.8182 77.7399 32.7731C77.5595 32.7224 77.396 32.6435 77.2495 32.5364C77.1029 32.4293 76.9845 32.294 76.8943 32.1305C76.8098 31.9614 76.7675 31.7726 76.7675 31.564C76.7675 31.3104 76.8154 31.099 76.9113 30.9299C77.0071 30.7608 77.1311 30.6255 77.2833 30.524C77.4411 30.4226 77.6215 30.3521 77.8244 30.3126C78.0274 30.2675 78.2387 30.245 78.4586 30.245H79.9213C79.9213 30.0421 79.8988 29.8504 79.8537 29.67C79.8142 29.4897 79.7466 29.3318 79.6508 29.1965C79.5549 29.0613 79.4281 28.9542 79.2703 28.8752C79.1181 28.7963 78.9292 28.7569 78.7038 28.7569C78.5967 28.7569 78.4868 28.7653 78.374 28.7822C78.2669 28.7991 78.1626 28.8273 78.0612 28.8668C77.9653 28.9062 77.8752 28.9626 77.7906 29.0359C77.7117 29.1035 77.6469 29.1881 77.5961 29.2896H76.9874C77.0381 29.1035 77.1226 28.9485 77.241 28.8245C77.3594 28.6949 77.4975 28.5906 77.6553 28.5117C77.8188 28.4271 77.9907 28.3679 78.1711 28.3341C78.3571 28.3003 78.5403 28.2834 78.7207 28.2834C79.0476 28.2834 79.3238 28.3369 79.5493 28.444C79.7748 28.5511 79.9552 28.7005 80.0904 28.8922C80.2314 29.0782 80.33 29.298 80.3864 29.5517C80.4484 29.8053 80.4794 30.0787 80.4794 30.3718V32.79H80.0228L79.9467 32.1474ZM78.7461 30.6931C78.5995 30.6931 78.4417 30.6988 78.2726 30.71C78.1091 30.7213 77.9569 30.7551 77.816 30.8115C77.675 30.8622 77.5567 30.944 77.4608 31.0567C77.3707 31.1638 77.3256 31.3132 77.3256 31.5048C77.3256 31.657 77.3537 31.7867 77.4101 31.8938C77.4721 32.0009 77.551 32.0911 77.6469 32.1643C77.7483 32.2376 77.8611 32.2912 77.9851 32.325C78.1147 32.3588 78.2472 32.3757 78.3825 32.3757C78.6023 32.3757 78.8052 32.3475 78.9913 32.2912C79.1829 32.2348 79.3464 32.1503 79.4817 32.0375C79.6226 31.9191 79.7297 31.7754 79.803 31.6063C79.8819 31.4316 79.9213 31.2286 79.9213 30.9975V30.6931H78.7461ZM82.9016 32.79H82.3605V26.8122H82.9185V29.0613C83.0989 28.7851 83.33 28.5821 83.6119 28.4525C83.8993 28.3228 84.2122 28.258 84.5504 28.258C84.8999 28.258 85.1986 28.3228 85.4467 28.4525C85.6947 28.5821 85.8976 28.7569 86.0554 28.9767C86.2133 29.1965 86.326 29.453 86.3937 29.7461C86.4613 30.0336 86.4923 30.3352 86.4867 30.6509C86.4754 31.0342 86.4077 31.3808 86.2837 31.6909C86.1654 32.0009 85.9793 32.2517 85.7257 32.4434C85.5735 32.5617 85.3903 32.6576 85.1761 32.7309C84.9675 32.7985 84.7364 32.8323 84.4828 32.8323C84.3418 32.8323 84.1981 32.821 84.0515 32.7985C83.905 32.7759 83.7612 32.7393 83.6203 32.6886C83.485 32.6322 83.3554 32.5589 83.2314 32.4687C83.1074 32.3785 83.0003 32.2658 82.9101 32.1305L82.9016 32.79ZM84.4489 32.3673C84.7139 32.3673 84.9393 32.3194 85.1254 32.2235C85.3114 32.1277 85.4636 31.9981 85.5819 31.8346C85.7003 31.6655 85.7877 31.4738 85.8441 31.2596C85.9004 31.0398 85.9286 30.8115 85.9286 30.5748C85.9286 30.3324 85.9004 30.1013 85.8441 29.8814C85.7933 29.6559 85.7088 29.4615 85.5904 29.298C85.472 29.1345 85.317 29.0049 85.1254 28.9091C84.9393 28.8076 84.7082 28.7569 84.432 28.7569C84.1896 28.7569 83.967 28.8132 83.7641 28.926C83.5611 29.0331 83.3948 29.174 83.2652 29.3487C83.1355 29.5122 83.0425 29.701 82.9862 29.9152C82.9298 30.1238 82.9016 30.3436 82.9016 30.5748C82.9016 30.851 82.9467 31.1272 83.0369 31.4034C83.1327 31.6739 83.2962 31.8966 83.5273 32.0713C83.7922 32.2686 84.0995 32.3673 84.4489 32.3673ZM88.2224 32.79V26.8122H88.7804V32.79H88.2224ZM91.0546 30.7439C91.0658 30.9806 91.1053 31.1976 91.1729 31.3949C91.2462 31.5922 91.3477 31.7641 91.4773 31.9107C91.607 32.0516 91.7648 32.1643 91.9508 32.2489C92.1425 32.3278 92.3651 32.3673 92.6188 32.3673C92.7372 32.3673 92.8555 32.356 92.9739 32.3335C93.0979 32.3109 93.2135 32.2771 93.3206 32.232C93.4333 32.1813 93.5348 32.1164 93.625 32.0375C93.7152 31.9586 93.7856 31.86 93.8364 31.7416H94.4198C94.3578 31.9389 94.2619 32.108 94.1323 32.2489C94.0083 32.3898 93.8645 32.5054 93.7011 32.5956C93.5376 32.6801 93.36 32.7421 93.1684 32.7816C92.9767 32.821 92.7851 32.8408 92.5934 32.8408C92.2439 32.8408 91.9367 32.7844 91.6718 32.6717C91.4125 32.5589 91.1955 32.4039 91.0207 32.2066C90.846 32.0037 90.7164 31.7641 90.6318 31.4879C90.5473 31.2061 90.505 30.8989 90.505 30.5663C90.505 30.2281 90.5501 29.9181 90.6403 29.6362C90.7304 29.3544 90.8629 29.1148 91.0377 28.9175C91.218 28.7146 91.4379 28.5596 91.6972 28.4525C91.9621 28.3397 92.2637 28.2834 92.6019 28.2834C92.957 28.2834 93.2558 28.3538 93.4981 28.4948C93.7462 28.6357 93.9463 28.8217 94.0985 29.0528C94.2507 29.2783 94.3578 29.5404 94.4198 29.8391C94.4874 30.1323 94.5156 30.4338 94.5043 30.7439H91.0546ZM93.9378 30.2788C93.9322 30.0759 93.8984 29.8814 93.8364 29.6954C93.78 29.5094 93.6926 29.3487 93.5742 29.2135C93.4615 29.0725 93.3178 28.9626 93.143 28.8837C92.9683 28.7991 92.7654 28.7569 92.5342 28.7569C92.3031 28.7569 92.0974 28.7991 91.917 28.8837C91.7423 28.9683 91.5929 29.081 91.4689 29.2219C91.3449 29.3628 91.249 29.5263 91.1814 29.7123C91.1138 29.8927 91.0743 30.0815 91.063 30.2788H93.9378ZM96.2305 32.79V28.3341H96.7716L96.7885 29.1035C96.89 28.9344 97.0027 28.7963 97.1267 28.6892C97.2564 28.5821 97.3973 28.4976 97.5495 28.4356C97.7017 28.3736 97.8623 28.3341 98.0314 28.3172C98.2005 28.2946 98.3781 28.2862 98.5641 28.2918V28.7991H98.4119C98.1413 28.7991 97.9074 28.8414 97.7101 28.926C97.5128 29.0049 97.3494 29.1148 97.2197 29.2557C97.0393 29.4417 96.921 29.6503 96.8646 29.8814C96.8139 30.1125 96.7885 30.3549 96.7885 30.6086V32.79H96.2305Z" fill="black"/>
<defs>
<clipPath id="clip0_9685_40100">
<rect width="106" height="28.2097" fill="white" transform="translate(0 0.854492)"/>
</clipPath>
<clipPath id="clip1_9685_40100">
<rect width="102.581" height="20.0857" fill="white" transform="translate(3.41943 0.765625)"/>
</clipPath>
</defs>
</svg>
