<svg xmlns="http://www.w3.org/2000/svg" width="121" height="30" viewBox="0 0 121 30" fill="none">
  <g clip-path="url(#clip0_8344_36566)">
    <path fill-rule="evenodd" clip-rule="evenodd" d="M4.58662 18.1546C4.58662 18.3888 4.77561 18.5787 5.00866 18.5787H9.15747C9.39054 18.5787 9.57951 18.3888 9.57951 18.1546V16.0704H11.6539C11.8869 16.0704 12.076 15.8805 12.076 15.6463V13.9861C12.076 13.752 11.8869 13.5622 11.6539 13.5622H5.00866C4.77561 13.5622 4.58662 13.752 4.58662 13.9861V18.1546ZM4.58662 8.95528C4.58662 8.72113 4.39764 8.53125 4.16459 8.53125H0.0157843C-0.217264 8.53125 -0.40625 8.72113 -0.40625 8.95528V13.1237C-0.40625 13.3579 -0.217264 13.5477 0.0157843 13.5477H1.66815C1.9012 13.5477 2.09019 13.3579 2.09019 13.1237V11.0395H4.16459C4.39764 11.0395 4.58662 10.8497 4.58662 10.6155V8.95528ZM7.08307 24.0048C7.08307 23.7706 6.89407 23.5808 6.66103 23.5808H5.00866C4.77561 23.5808 4.58662 23.7706 4.58662 24.0048V25.665C4.58662 25.8991 4.77561 26.0891 5.00866 26.0891H6.66103C6.89407 26.0891 7.08307 25.8991 7.08307 25.665V24.0048ZM36.6183 8.53125H32.4694C32.2365 8.53125 32.0474 8.72113 32.0474 8.95528V10.6155C32.0474 10.8497 32.2365 11.0395 32.4694 11.0395H34.5439V13.1237C34.5439 13.3579 34.7328 13.5477 34.9659 13.5477H36.6183C36.8514 13.5477 37.0403 13.3579 37.0403 13.1237V8.95528C37.0403 8.72113 36.8514 8.53125 36.6183 8.53125ZM31.6254 13.5477H24.9802C24.7471 13.5477 24.5581 13.7377 24.5581 13.9718V15.632C24.5581 15.8661 24.7471 16.056 24.9802 16.056H27.0546V18.1403C27.0546 18.3744 27.2435 18.5643 27.4766 18.5643H31.6254C31.8584 18.5643 32.0474 18.3744 32.0474 18.1403V13.9718C32.0474 13.7377 31.8584 13.5477 31.6254 13.5477ZM29.129 26.1034H27.0546V24.0192C27.0546 23.785 26.8656 23.5951 26.6325 23.5951H24.5581V19.0027C24.5581 18.7685 24.3691 18.5787 24.1361 18.5787H22.0617V13.9861C22.0617 13.752 21.8727 13.5622 21.6397 13.5622H14.9944C14.7614 13.5622 14.5723 13.752 14.5723 13.9861V18.5787H12.498C12.2649 18.5787 12.076 18.7685 12.076 19.0027V23.5951H10.0016C9.76848 23.5951 9.57951 23.785 9.57951 24.0192V26.1034H7.5051C7.27205 26.1034 7.08307 26.2933 7.08307 26.5275V28.1876C7.08307 28.4218 7.27205 28.6116 7.5051 28.6116H11.6539C11.8869 28.6116 12.076 28.4218 12.076 28.1876V26.1034H14.1503C14.3834 26.1034 14.5723 25.9136 14.5723 25.6794V21.0869H22.0617V25.6794C22.0617 25.9136 22.2507 26.1034 22.4837 26.1034H24.5581V28.1876C24.5581 28.4218 24.7471 28.6116 24.9802 28.6116H29.129C29.362 28.6116 29.551 28.4218 29.551 28.1876V26.5275C29.551 26.2933 29.362 26.1034 29.129 26.1034ZM31.6254 23.5808H29.9731C29.74 23.5808 29.551 23.7706 29.551 24.0048V25.665C29.551 25.8991 29.74 26.0891 29.9731 26.0891H31.6254C31.8584 26.0891 32.0474 25.8991 32.0474 25.665V24.0048C32.0474 23.7706 31.8584 23.5808 31.6254 23.5808Z" fill="#C5C5C5"/>
    <path fill-rule="evenodd" clip-rule="evenodd" d="M10.0021 8.53016H26.6332C26.8662 8.53016 27.0551 8.34014 27.0551 8.10582V6.44444C27.0551 6.21004 26.8662 6.02011 26.6332 6.02011H24.5588V3.93438C24.5588 3.70007 24.3698 3.51005 24.1367 3.51005H22.0623V1.42434C22.0623 1.19002 21.8733 1 21.6403 1H14.995C14.762 1 14.573 1.19002 14.573 1.42434V3.51005H12.4986C12.2655 3.51005 12.0765 3.70007 12.0765 3.93438V6.02011H10.0021C9.76913 6.02011 9.58008 6.21004 9.58008 6.44444V8.10582C9.58008 8.34014 9.76913 8.53016 10.0021 8.53016Z" fill="#C5C5C5"/>
    <path fill-rule="evenodd" clip-rule="evenodd" d="M80.1342 13.297C78.8208 13.297 77.6344 13.8402 76.7997 14.7113C75.9841 13.8368 74.8224 13.2902 73.5349 13.2902C72.8125 13.2902 72.0755 13.5562 71.507 13.9405V13.8131C71.507 13.6294 71.3554 13.4897 71.179 13.4897H69.3475C69.1722 13.4897 69.0194 13.6294 69.0194 13.8131V22.9869C69.0194 23.1706 69.1711 23.3103 69.3475 23.3103H71.1834C71.3587 23.3103 71.5115 23.1706 71.5115 22.9869V17.7779C71.5115 16.6555 72.4181 15.7471 73.5349 15.7471C74.6528 15.7471 75.5583 16.6566 75.5583 17.7779V22.9869C75.5583 23.1706 75.7099 23.3103 75.8864 23.3103H77.6794C77.6839 23.3103 77.6873 23.3103 77.6895 23.3103H77.7299C77.9052 23.3103 78.058 23.1706 78.058 22.9869V17.7813C78.058 16.6644 78.9837 15.7516 80.1342 15.7516C81.2846 15.7516 82.2104 16.6644 82.2104 17.7813V22.9858C82.2104 23.1695 82.362 23.3092 82.5385 23.3092H84.3809C84.5574 23.3092 84.709 23.1695 84.709 22.9858V17.7813C84.7079 15.3008 82.6564 13.297 80.1342 13.297ZM93.8695 18.2242C93.1702 17.7971 92.2725 17.592 91.4899 17.4139L91.4744 17.4105C90.9063 17.2809 90.4069 17.166 90.0473 16.9969C89.6912 16.8301 89.5299 16.6385 89.5299 16.3748C89.5299 16.1472 89.6148 15.9454 89.8173 15.7865C90.025 15.6231 90.3691 15.4968 90.9003 15.4654C91.8057 15.4654 92.5068 15.4867 92.9813 15.5081C93.2191 15.5183 93.4001 15.5295 93.5203 15.5375C93.5812 15.542 93.6267 15.5442 93.6576 15.5465C93.673 15.5476 93.6842 15.5487 93.691 15.5487L93.6988 15.5498H93.7013L93.7091 15.5509H93.7168C93.8575 15.5509 93.9854 15.5239 94.0729 15.4327C94.1502 15.3515 94.1665 15.2478 94.1733 15.1971C94.1733 15.1937 94.1742 15.1904 94.1742 15.1881C94.1776 15.1666 94.1802 15.1508 94.1828 15.1363L94.1879 15.1171V13.9867C94.1879 13.8492 94.1785 13.7229 94.1261 13.626C94.0609 13.5055 93.9519 13.4671 93.8644 13.448L93.8558 13.4468L93.8481 13.4457H93.8447L93.8361 13.4446C93.8284 13.4435 93.8172 13.4423 93.8026 13.4412C93.7717 13.4379 93.7271 13.4334 93.6679 13.4277C93.5469 13.4165 93.3675 13.4018 93.1247 13.3871C92.6398 13.3578 91.9026 13.3285 90.8935 13.3285H90.89H90.8866C89.5951 13.377 88.6151 13.7376 87.956 14.3079C87.2944 14.8793 86.9683 15.6502 86.9683 16.4841C86.9683 17.033 87.0944 17.4827 87.3167 17.8534C87.5381 18.2231 87.8487 18.5037 88.204 18.7235C88.9043 19.1551 89.8002 19.3636 90.5811 19.5451L90.5974 19.5485C91.1664 19.6803 91.6667 19.7975 92.0262 19.9688C92.3815 20.1379 92.5463 20.3329 92.5463 20.6045C92.5463 20.831 92.4416 21.0327 92.1893 21.1871C91.9258 21.3471 91.5002 21.4542 90.8737 21.4542C90.1614 21.4542 89.384 21.3776 88.7815 21.2998C88.4803 21.2615 88.2255 21.222 88.0444 21.1928C87.9543 21.1781 87.883 21.1657 87.8341 21.1578C87.8213 21.1556 87.8092 21.1533 87.7998 21.1522C87.7921 21.151 87.7835 21.1499 87.7784 21.1488L87.7646 21.1465L87.7603 21.1454L87.7449 21.142H87.7286C87.6007 21.142 87.4797 21.1657 87.3939 21.2525C87.3184 21.328 87.3021 21.4283 87.2952 21.4745C87.2944 21.4778 87.2944 21.4813 87.2944 21.4835C87.2892 21.5083 87.2858 21.5241 87.2823 21.5399L87.278 21.5579L87.2077 22.8336V22.8382C87.2077 22.9215 87.2197 23.0208 87.2652 23.1098C87.3107 23.2045 87.3939 23.2889 87.5209 23.3216L87.5252 23.3228L87.5303 23.3239L87.5355 23.2946C87.5303 23.3239 87.5303 23.3239 87.5303 23.3239L87.5346 23.325C87.5364 23.3261 87.5415 23.3261 87.5466 23.3273C87.5569 23.3296 87.5724 23.3318 87.593 23.3363C87.6333 23.3442 87.6917 23.3543 87.7689 23.3668C87.9242 23.3915 88.1499 23.4242 88.4426 23.4581C89.0244 23.5245 89.8645 23.5899 90.8977 23.5899H90.9063C91.0333 23.591 92.0657 23.5989 93.0732 23.2191C93.5786 23.0286 94.0884 22.7367 94.4728 22.2882C94.8607 21.8363 95.1113 21.2333 95.1113 20.4422C95.1113 19.8989 94.9843 19.4527 94.762 19.0853C94.5372 18.7178 94.2257 18.4406 93.8695 18.2242ZM114.574 13.4953C113.549 13.4953 112.59 13.785 111.785 14.2865V10.0832C111.785 9.89954 111.633 9.75977 111.457 9.75977H109.618C109.443 9.75977 109.291 9.89954 109.291 10.0832V22.9892C109.291 23.1729 109.443 23.3127 109.618 23.3127H111.457C111.633 23.3127 111.785 23.1729 111.785 22.9892V22.5598C112.545 23.1549 113.551 23.5888 114.574 23.5888C117.435 23.5888 119.763 21.3347 119.763 18.5421C119.763 15.7493 117.435 13.4953 114.574 13.4953ZM114.574 21.1522C113.091 21.1522 111.888 19.9835 111.888 18.5421C111.888 17.1006 113.091 15.9319 114.574 15.9319C116.057 15.9319 117.26 17.1006 117.26 18.5421C117.26 19.9835 116.059 21.1522 114.574 21.1522ZM106.463 13.4953H104.621C104.444 13.4953 104.292 13.6351 104.292 13.8188V19.154C104.292 20.255 103.368 21.1578 102.216 21.1578C102.211 21.1578 102.206 21.1578 102.201 21.1578C102.195 21.1578 102.19 21.1578 102.184 21.1578C101.032 21.1578 100.108 20.255 100.108 19.154V13.8188C100.108 13.6351 99.9564 13.4953 99.7805 13.4953H97.9381C97.7613 13.4953 97.6094 13.6351 97.6094 13.8188V19.154C97.6094 21.6086 99.6638 23.5877 102.184 23.5877C102.19 23.5877 102.195 23.5877 102.201 23.5877C102.206 23.5877 102.211 23.5877 102.216 23.5877C104.736 23.5877 106.791 21.6086 106.791 19.154V13.8188C106.791 13.6351 106.639 13.4953 106.463 13.4953ZM53.6094 18.2242C52.9095 17.7971 52.0119 17.592 51.2299 17.4139L51.2141 17.4105C50.6457 17.2809 50.1468 17.166 49.7874 16.9969C49.4312 16.8301 49.2695 16.6385 49.2695 16.3748C49.2695 16.1472 49.3548 15.9454 49.557 15.7865C49.7649 15.6231 50.1087 15.4968 50.64 15.4654C51.5456 15.4654 52.2467 15.4867 52.7207 15.5081C52.9589 15.5183 53.1398 15.5295 53.26 15.5375C53.3206 15.542 53.3667 15.5442 53.3971 15.5465C53.4128 15.5476 53.4241 15.5487 53.4307 15.5487L53.4386 15.5498H53.4409L53.4488 15.5509H53.4567C53.5971 15.5509 53.7251 15.5239 53.8128 15.4327C53.8903 15.3515 53.906 15.2478 53.9128 15.1971C53.9128 15.1937 53.9139 15.1904 53.9139 15.1881C53.9172 15.1666 53.9195 15.1508 53.9229 15.1363L53.9274 15.1171V13.9867C53.9274 13.8492 53.9183 13.7229 53.8656 13.626C53.8004 13.5055 53.6915 13.4671 53.6038 13.448L53.5959 13.4468L53.588 13.4457H53.5847L53.5757 13.4446C53.5679 13.4435 53.5566 13.4423 53.542 13.4412C53.5117 13.4379 53.4667 13.4334 53.4071 13.4277C53.287 13.4165 53.1072 13.4018 52.8645 13.3871C52.3792 13.3578 51.6422 13.3285 50.6333 13.3285H50.63H50.6266C49.3346 13.377 48.3549 13.7376 47.6954 14.3079C47.0348 14.8793 46.709 15.6502 46.709 16.4841C46.709 17.033 46.8349 17.4827 47.0573 17.8534C47.2786 18.2231 47.5898 18.5037 47.9448 18.7235C48.6448 19.1551 49.5413 19.3636 50.3222 19.5451L50.3379 19.5485C50.9074 19.6803 51.4074 19.7975 51.767 19.9688C52.122 20.1379 52.2871 20.3329 52.2871 20.6045C52.2871 20.831 52.1826 21.0327 51.9298 21.1871C51.6669 21.3471 51.2412 21.4542 50.6142 21.4542C49.9019 21.4542 49.1245 21.3776 48.5224 21.2998C48.2212 21.2615 47.9662 21.222 47.7853 21.1928C47.6954 21.1781 47.6235 21.1657 47.5752 21.1578C47.5617 21.1556 47.5505 21.1533 47.5404 21.1522C47.5326 21.151 47.5247 21.1499 47.5191 21.1488L47.5055 21.1465L47.5011 21.1454L47.4854 21.142H47.4685C47.3404 21.142 47.2191 21.1657 47.1337 21.2525C47.0584 21.328 47.0416 21.4283 47.0348 21.4745C47.0337 21.4778 47.0337 21.4813 47.0337 21.4835C47.0292 21.5083 47.0258 21.5241 47.0225 21.5399L47.018 21.5579L46.945 22.8325V22.8371C46.945 22.9204 46.9573 23.0196 47.0022 23.1086C47.0483 23.2033 47.1315 23.2878 47.2584 23.3205L47.2629 23.3216L47.2674 23.3228L47.273 23.2935C47.2674 23.3228 47.2674 23.3228 47.2674 23.3228H47.2685L47.2718 23.3239C47.2742 23.325 47.2786 23.325 47.2842 23.3261C47.2943 23.3284 47.3101 23.3307 47.3303 23.3352C47.3707 23.343 47.4291 23.3532 47.5067 23.3656C47.6617 23.3904 47.8876 23.4231 48.1797 23.4568C48.7616 23.5234 49.602 23.5888 50.6356 23.5888H50.6435C50.7704 23.5899 51.8028 23.5977 52.8106 23.2179C53.3162 23.0275 53.8263 22.7356 54.2105 22.2871C54.5981 21.8351 54.8486 21.2322 54.8486 20.4411C54.8486 19.8978 54.7217 19.4516 54.4992 19.0841C54.2767 18.7178 53.9655 18.4406 53.6094 18.2242ZM66.1953 13.4953H64.3528C64.1764 13.4953 64.0248 13.6351 64.0248 13.8188V19.154C64.0248 20.255 63.1013 21.1578 61.9485 21.1578C61.943 21.1578 61.9385 21.1578 61.9328 21.1578C61.9273 21.1578 61.9227 21.1578 61.9171 21.1578C60.7645 21.1578 59.8409 20.255 59.8409 19.154V13.8188C59.8409 13.6351 59.6893 13.4953 59.5128 13.4953H57.6704C57.494 13.4953 57.3423 13.6351 57.3423 13.8188V19.154C57.3423 21.6086 59.396 23.5877 61.9171 23.5877C61.9227 23.5877 61.9273 23.5877 61.9328 23.5877C61.9385 23.5877 61.943 23.5877 61.9485 23.5877C64.4685 23.5877 66.5234 21.6086 66.5234 19.154V13.8188C66.5234 13.6351 66.3717 13.4953 66.1953 13.4953Z" fill="#C5C5C5"/>
  </g>
  <defs>
    <clipPath id="clip0_8344_36566">
      <rect width="121" height="30" fill="white"/>
    </clipPath>
  </defs>
</svg>