<svg xmlns="http://www.w3.org/2000/svg" width="74" height="30" viewBox="0 0 74 30" fill="none">
  <path fill-rule="evenodd" clip-rule="evenodd" d="M1.18335 6.75391H3.83873V12.9054C3.83873 14.5786 4.90593 15.9022 6.66218 15.9022C8.46883 15.9022 9.52764 14.5703 9.52764 12.9054V6.75391H12.183V12.9221C12.183 16.2684 10.0066 18.416 6.66218 18.416C3.33454 18.416 1.18335 16.2601 1.18335 12.9221V6.75391ZM30.3169 6.75391H27.6531V23.244H30.3169V6.75391ZM54.9884 12.9221C54.1062 12.0314 52.854 11.5653 51.3751 11.5653C50.5852 11.5653 49.8626 11.6985 49.2155 11.9565C48.6357 12.1896 48.1315 12.5225 47.7113 12.9471C47.2912 12.5225 46.7954 12.1896 46.2156 11.9565C45.577 11.6985 44.8543 11.5653 44.0728 11.5653C42.5855 11.5653 41.325 12.0314 40.4342 12.9221C39.5351 13.8128 39.0645 15.0614 39.0645 16.5431V23.2357H41.72V16.5598C41.72 15.8688 41.9384 15.2446 42.3418 14.8033C42.7619 14.3372 43.367 14.0875 44.0728 14.0875C44.7283 14.0875 45.2913 14.3122 45.703 14.7284C46.0896 15.128 46.3332 15.694 46.3753 16.3267V16.5431V23.2357H49.0475V16.5431V16.3267C49.0979 15.6857 49.3332 15.128 49.7281 14.7284C50.1483 14.3122 50.7196 14.0875 51.3919 14.0875C52.081 14.0875 52.6692 14.3372 53.0894 14.8033C53.4843 15.2446 53.7112 15.8688 53.7112 16.5598V23.2357H56.3665V16.5431C56.3413 15.0614 55.8792 13.8128 54.9884 12.9221ZM36.0058 10.2334V6.75391H33.3504V10.2334H36.0058ZM36.0058 23.244V11.8649H33.3504V23.244H36.0058ZM62.0554 6.75391V10.2334H59.4001V6.75391H62.0554ZM62.0554 11.8649V23.244H59.4001V11.8649H62.0554ZM67.7782 14.4288H72.4417V11.8649H67.7698V6.75391H65.1141V20.1474C65.1141 22.0953 66.2907 23.244 68.2824 23.244H72.4417V20.6802H68.8201C68.1476 20.6802 67.7782 20.3139 67.7782 19.698V14.4288ZM21.981 23.244H24.6364V17.0592C24.6364 13.7212 22.4852 11.5653 19.1576 11.5653C15.8132 11.5653 13.6367 13.7129 13.6367 17.0592V23.244H16.2922V17.0842C16.2922 15.4194 17.3509 14.0875 19.1576 14.0875C20.9138 14.0875 21.981 15.411 21.981 17.0842V23.244Z" fill="#C5C5C5"/>
</svg>